<svg width="80" height="66" viewBox="0 0 80 66" fill="none" xmlns="http://www.w3.org/2000/svg">
<path d="M50.9331 0.931207C57.6302 -0.518649 65.9386 -0.446176 77.2448 2.37339C79.1932 2.85925 80.3775 4.82878 79.8906 6.77241C79.4037 8.71605 77.4295 9.89784 75.4812 9.41198C64.9695 6.79063 57.8237 6.86354 52.4757 8.02136C47.111 9.18271 43.2546 11.4861 39.1691 13.9769L38.8633 14.1634C34.9251 16.566 30.5642 19.2265 24.8027 20.1844C18.8267 21.1778 11.7674 20.2995 2.28665 16.5159C0.422071 15.7718 -0.484824 13.6606 0.261089 11.8005C1.00698 9.94034 3.12324 9.03562 4.98782 9.77976C13.6886 13.252 19.3562 13.7345 23.6073 13.0278C27.9232 12.3104 31.2136 10.3242 35.3768 7.78616C39.4728 5.28892 44.2524 2.37746 50.9331 0.931207Z" fill="white"/>
<path d="M77.2448 16.8837C65.9386 14.0642 57.6302 13.9917 50.9331 15.4416C44.2524 16.8878 39.4728 19.7993 35.3768 22.2965C31.2136 24.8346 27.9232 26.8208 23.6073 27.5382C19.3562 28.2448 13.6886 27.7622 4.98782 24.2901C3.12324 23.546 1.00698 24.4507 0.261089 26.311C-0.484824 28.171 0.422071 30.2822 2.28665 31.0262C11.7674 34.8099 18.8267 35.6881 24.8027 34.6946C30.5642 33.7368 34.9251 31.0764 38.8633 28.6739L39.1691 28.4873C43.2546 25.9964 47.111 23.6931 52.4757 22.5317C57.8237 21.3739 64.9695 21.301 75.4812 23.9223C77.4295 24.4082 79.4037 23.2264 79.8906 21.2828C80.3775 19.3391 79.1932 17.3696 77.2448 16.8837Z" fill="white"/>
<path fill-rule="evenodd" clip-rule="evenodd" d="M65.4538 25.5513C64.1913 25.5513 63.1393 26.2033 62.4051 27.1898C62.1473 27.5382 61.5513 28.3535 60.7596 29.4945C59.7065 31.012 58.2971 33.1207 56.8814 35.4746C55.4727 37.8167 54.0193 40.4655 52.9073 43.0535C51.8425 45.532 50.9051 48.2233 50.9087 50.9517C50.9112 51.7175 51.0029 52.4869 51.1287 53.2407C51.3389 54.4989 51.7658 56.2313 52.656 58.0077C53.5534 59.7986 54.9567 61.6997 57.1298 63.1448C59.3258 64.6051 62.0902 65.4546 65.4538 65.4546C68.8174 65.4546 71.5818 64.6051 73.7774 63.1448C75.9505 61.6997 77.3542 59.7986 78.2516 58.008C79.1418 56.2313 79.5691 54.4989 79.7793 53.2411C79.9055 52.4862 79.9982 51.7146 79.9993 50.948C80.0004 48.2197 79.0655 45.5324 78.0004 43.0535C76.8887 40.4655 75.4353 37.8167 74.0265 35.4746C72.6109 33.1207 71.2011 31.012 70.148 29.4945C69.3564 28.3535 68.76 27.5382 68.5025 27.1898C67.7684 26.2033 66.716 25.5513 65.4538 25.5513ZM71.316 45.9117C70.3825 43.7386 69.1087 41.3993 67.7902 39.2073C66.9884 37.8742 66.1844 36.6189 65.4538 35.5178C64.7233 36.6189 63.9193 37.8742 63.1174 39.2073C61.7993 41.3993 60.5254 43.7386 59.592 45.9117L59.5389 46.0346C58.8963 47.5287 58.1371 49.2953 58.1822 50.9458C58.2258 52.2513 58.5774 53.5989 59.1611 54.7633C59.6269 55.6935 60.2691 56.5131 61.164 57.1084C62.0364 57.6884 63.3629 58.1993 65.4538 58.1993C67.5447 58.1993 68.8713 57.6884 69.7436 57.1084C70.6385 56.5131 71.2807 55.6931 71.7469 54.7633C72.3305 53.5989 72.6822 52.2513 72.7258 50.9455C72.7713 49.2957 72.0116 47.5291 71.3691 46.0353L71.316 45.9117Z" fill="white"/>
<path d="M47.744 31.0212C50.5087 30.1263 52.6284 33.0038 51.3284 35.5972C50.7346 36.7823 50.0666 37.7907 48.7385 38.2598C45.1855 39.5151 42.2422 41.2827 39.1691 43.1561L38.8633 43.3427C34.9251 45.7452 30.5642 48.4056 24.8027 49.3634C18.8267 50.3569 11.7674 49.4787 2.28665 45.6951C0.422065 44.9511 -0.484816 42.8398 0.261083 40.9798C1.00701 39.1194 3.12323 38.2147 4.98785 38.9591C13.6886 42.4311 19.3562 42.9136 23.6073 42.2071C27.9232 41.4896 31.2136 39.5034 35.3767 36.9652C39.3331 34.5532 43.4047 32.426 47.744 31.0212Z" fill="white"/>
</svg>
