<svg width="30" height="35" viewBox="0 0 30 35" fill="none" xmlns="http://www.w3.org/2000/svg">
<path d="M25.6065 25.6152C28.4197 22.8005 30 18.9839 30 15.0044C30 11.0249 28.4197 7.20832 25.6065 4.39367C24.2137 3.00071 22.5601 1.89575 20.7402 1.14188C18.9204 0.388013 16.9698 0 15 0C13.0302 0 11.0796 0.388013 9.25975 1.14188C7.43988 1.89575 5.78633 3.00071 4.39352 4.39367C1.58032 7.20832 0 11.0249 0 15.0044C0 18.9839 1.58032 22.8005 4.39352 25.6152L7.6526 28.8272L12.0302 33.0805L12.3152 33.3333C13.9758 34.6789 16.4078 34.5932 17.972 33.0805L23.1895 28.0022L25.6065 25.6152ZM15 21.4262C13.2951 21.4262 11.6601 20.7489 10.4546 19.5434C9.24908 18.3379 8.57183 16.7029 8.57183 14.998C8.57183 13.2932 9.24908 11.6581 10.4546 10.4526C11.6601 9.24709 13.2951 8.56984 15 8.56984C16.7049 8.56984 18.3399 9.24709 19.5454 10.4526C20.7509 11.6581 21.4282 13.2932 21.4282 14.998C21.4282 16.7029 20.7509 18.3379 19.5454 19.5434C18.3399 20.7489 16.7049 21.4262 15 21.4262Z" fill="#AEAEAE"/>
</svg>
