<svg width="85" height="71" viewBox="0 0 85 71" fill="none" xmlns="http://www.w3.org/2000/svg">
<path d="M4.39655 26.3793C3.23051 26.3793 2.11223 25.9161 1.28772 25.0916C0.463207 24.2671 0 23.1488 0 21.9828C0 20.8167 0.463207 19.6984 1.28772 18.8739C2.11223 18.0494 3.23051 17.5862 4.39655 17.5862H39.569C40.735 17.5862 41.8533 17.123 42.6778 16.2985C43.5023 15.474 43.9655 14.3557 43.9655 13.1897C43.9655 12.0236 43.5023 10.9053 42.6778 10.0808C41.8533 9.25631 40.735 8.7931 39.569 8.7931C38.1532 8.83431 36.8074 9.418 35.8099 10.4235C34.9758 11.1839 33.8813 11.5943 32.7529 11.5699C31.6245 11.5455 30.5487 11.0881 29.7483 10.2924C28.9479 9.49669 28.4841 8.42362 28.4531 7.2954C28.422 6.16718 28.826 5.07023 29.5815 4.23168C32.2326 1.57443 35.8158 0.0562508 39.569 0C43.0671 0 46.4219 1.38962 48.8955 3.86316C51.369 6.3367 52.7586 9.69154 52.7586 13.1897C52.7586 16.6878 51.369 20.0426 48.8955 22.5161C46.4219 24.9897 43.0671 26.3793 39.569 26.3793H4.39655ZM71.8103 13.1897C68.0521 13.2421 64.463 14.7606 61.8082 17.4213C61.0528 18.2599 60.6487 19.3568 60.6798 20.4851C60.7109 21.6133 61.1746 22.6863 61.975 23.4821C62.7755 24.2778 63.8512 24.7352 64.9796 24.7596C66.108 24.784 67.2026 24.3735 68.0366 23.6131C69.0378 22.6042 70.3895 22.0202 71.8103 21.9828C72.9764 21.9828 74.0947 22.446 74.9192 23.2705C75.7437 24.095 76.2069 25.2133 76.2069 26.3793C76.2069 27.5453 75.7437 28.6636 74.9192 29.4881C74.0947 30.3127 72.9764 30.7759 71.8103 30.7759H7.32759C6.16155 30.7759 5.04327 31.2391 4.21875 32.0636C3.39424 32.8881 2.93103 34.0064 2.93103 35.1724C2.93103 36.3385 3.39424 37.4567 4.21875 38.2812C5.04327 39.1058 6.16155 39.569 7.32759 39.569H71.8103C75.3085 39.569 78.6633 38.1793 81.1368 35.7058C83.6104 33.2323 85 29.8774 85 26.3793C85 22.8812 83.6104 19.5264 81.1368 17.0528C78.6633 14.5793 75.3085 13.1897 71.8103 13.1897ZM51.2931 43.9655H10.2586C9.09258 43.9655 7.9743 44.4287 7.14979 45.2532C6.32528 46.0778 5.86207 47.196 5.86207 48.3621C5.86207 49.5281 6.32528 50.6464 7.14979 51.4709C7.9743 52.2954 9.09258 52.7586 10.2586 52.7586H51.2931C52.4591 52.7586 53.5774 53.2218 54.4019 54.0463C55.2264 54.8709 55.6897 55.9891 55.6897 57.1552C55.6897 58.3212 55.2264 59.4395 54.4019 60.264C53.5774 61.0885 52.4591 61.5517 51.2931 61.5517C49.8763 61.5103 48.5295 60.9267 47.5304 59.9213C47.1318 59.4789 46.6474 59.122 46.1067 58.8724C45.566 58.6227 44.9802 58.4856 44.3849 58.4692C43.7896 58.4528 43.1971 58.5575 42.6435 58.777C42.0899 58.9965 41.5866 59.3262 41.1642 59.7461C40.7419 60.166 40.4092 60.6673 40.1865 61.2196C39.9637 61.7719 39.8555 62.3637 39.8684 62.9591C39.8812 63.5545 40.015 64.1411 40.2614 64.6833C40.5078 65.2255 40.8618 65.7119 41.3019 66.1131C43.954 68.7713 47.5387 70.2895 51.2931 70.3448C54.7912 70.3448 58.1461 68.9552 60.6196 66.4817C63.0931 64.0081 64.4828 60.6533 64.4828 57.1552C64.4828 53.6571 63.0931 50.3022 60.6196 47.8287C58.1461 45.3551 54.7912 43.9655 51.2931 43.9655Z" fill="white"/>
</svg>
